<svg width="64" height="63" viewBox="0 0 64 63" fill="none" xmlns="http://www.w3.org/2000/svg">
<path d="M54.0349 53.5022H44.6384V38.9318C44.6384 35.4573 44.5758 30.9846 39.7513 30.9846C34.8572 30.9846 34.1084 34.7702 34.1084 38.6788V53.5012H24.7119V23.5385H33.7325V27.6332H33.8588C34.7616 26.1049 36.0661 24.8476 37.6334 23.9953C39.2007 23.143 40.9722 22.7276 42.7591 22.7932C52.2829 22.7932 54.0389 28.9959 54.0389 37.0652L54.0349 53.5022ZM14.1095 19.4428C13.031 19.443 11.9766 19.1265 11.0798 18.5334C10.183 17.9403 9.48394 17.0972 9.07104 16.1107C8.65814 15.1242 8.54993 14.0386 8.76014 12.9912C8.97036 11.9438 9.48954 10.9817 10.252 10.2265C11.0145 9.47124 11.986 8.95684 13.0437 8.74832C14.1015 8.5398 15.1979 8.64653 16.1943 9.05501C17.1908 9.46348 18.0425 10.1554 18.6419 11.0432C19.2412 11.9309 19.5612 12.9748 19.5614 14.0426C19.5615 14.7517 19.4206 15.4538 19.1467 16.1089C18.8728 16.764 18.4713 17.3593 17.965 17.8607C17.4587 18.3622 16.8576 18.76 16.1961 19.0315C15.5346 19.3029 14.8255 19.4427 14.1095 19.4428ZM18.8077 53.5022H9.40141V23.5385H18.8077V53.5022ZM58.7195 0.00427806H4.67968C3.45312 -0.00942725 2.2712 0.459587 1.39371 1.30826C0.516226 2.15693 0.0149694 3.31582 0 4.53028V58.2598C0.0144571 59.4749 0.51542 60.6346 1.39287 61.4841C2.27033 62.3337 3.45252 62.8036 4.67968 62.7907H58.7195C59.9491 62.8059 61.1346 62.3374 62.0155 61.4878C62.8964 60.6383 63.4007 59.4773 63.4177 58.2598V4.5264C63.4002 3.30954 62.8955 2.14932 62.0146 1.30067C61.1336 0.452025 59.9485 -0.0156492 58.7195 0.000399827" fill="black"/>
</svg>
